<svg width="1106" height="875" viewBox="0 0 1106 875" fill="none" xmlns="http://www.w3.org/2000/svg">
<rect x="639" y="828.864" width="120" height="997.881" transform="rotate(-120 639 828.864)" fill="url(#paint0_linear_7907_2)"/>
<g opacity="0.3">
<path opacity="0.3" d="M1188.93 556.146V547.437L1186.54 546.095C1185.86 550.197 1181.03 552.919 1176.97 553.482L1149.43 569.598L1137.42 573.933L1099.05 554.124L1099.94 553.619C1096.66 552.083 1094.89 548.584 1093.12 545.376L1090.54 546.912L1089 547.359V556.282C1089.1 557.296 1089.47 558.266 1090.06 559.095C1090.66 559.924 1091.46 560.583 1092.38 561.006L1130.88 583.206C1133.41 584.481 1136.2 585.146 1139.04 585.146C1141.87 585.146 1144.67 584.481 1147.2 583.206L1185.63 561.006C1186.54 560.588 1187.33 559.943 1187.92 559.133C1188.51 558.323 1188.88 557.374 1188.99 556.379C1189 556.302 1189 556.223 1188.99 556.146H1188.93Z" fill="url(#paint1_linear_7907_2)"/>
<path opacity="0.3" d="M1130.88 574.342L1092.44 552.141C1087.93 549.556 1087.93 545.318 1092.44 542.713L1130.88 520.512C1133.41 519.237 1136.2 518.573 1139.04 518.573C1141.87 518.573 1144.67 519.237 1147.2 520.512L1185.63 542.713C1190.12 545.318 1190.12 549.556 1185.63 552.141L1147.2 574.342C1144.67 575.626 1141.87 576.295 1139.04 576.295C1136.2 576.295 1133.4 575.626 1130.88 574.342Z" fill="url(#paint2_linear_7907_2)"/>
<g opacity="0.3">
<path opacity="0.3" d="M1130.88 574.342L1092.44 552.141C1087.93 549.556 1087.93 545.318 1092.44 542.713L1130.88 520.512C1133.41 519.237 1136.2 518.573 1139.04 518.573C1141.87 518.573 1144.67 519.237 1147.2 520.512L1185.63 542.713C1190.12 545.318 1190.12 549.556 1185.63 552.141L1147.2 574.342C1144.67 575.626 1141.87 576.295 1139.04 576.295C1136.2 576.295 1133.4 575.626 1130.88 574.342Z" fill="#0F054C"/>
</g>
</g>
<path d="M1138.98 546.29C1136.45 546.335 1133.96 545.74 1131.73 544.56L1093.3 522.359C1092.39 522.04 1091.6 521.447 1091.05 520.662C1090.49 519.877 1090.19 518.938 1090.19 517.975C1090.19 517.013 1090.49 516.074 1091.05 515.289C1091.6 514.504 1092.39 513.91 1093.3 513.592L1131.73 491.391C1133.97 490.26 1136.45 489.67 1138.97 489.67C1141.48 489.67 1143.96 490.26 1146.21 491.391L1184.66 513.592C1185.57 513.91 1186.35 514.504 1186.91 515.289C1187.47 516.074 1187.76 517.013 1187.76 517.975C1187.76 518.938 1187.47 519.877 1186.91 520.662C1186.35 521.447 1185.57 522.04 1184.66 522.359L1146.23 544.56C1143.99 545.74 1141.5 546.335 1138.98 546.29ZM1138.98 490.341C1136.57 490.293 1134.19 490.855 1132.06 491.974L1093.63 514.175C1092.83 514.44 1092.13 514.95 1091.64 515.632C1091.15 516.314 1090.88 517.134 1090.88 517.975C1090.88 518.817 1091.15 519.636 1091.64 520.319C1092.13 521.001 1092.83 521.511 1093.63 521.776L1132.06 543.976C1134.2 545.059 1136.57 545.624 1138.97 545.624C1141.37 545.624 1143.73 545.059 1145.88 543.976L1184.31 521.737C1185.11 521.472 1185.8 520.962 1186.29 520.28C1186.79 519.598 1187.05 518.778 1187.05 517.936C1187.05 517.095 1186.79 516.275 1186.29 515.593C1185.8 514.911 1185.11 514.401 1184.31 514.136L1145.88 491.935C1143.75 490.832 1141.37 490.283 1138.98 490.341Z" fill="#42E8E0"/>
<path opacity="0.4" d="M1188.93 509.451V496.29L1186.54 494.949C1185.86 499.07 1181.03 501.772 1176.97 502.336L1149.43 518.452L1137.42 522.787L1099.05 502.977L1099.94 502.472C1096.66 500.936 1094.89 497.437 1093.12 494.229L1090.54 495.765L1089 496.212V509.587C1089.1 510.601 1089.47 511.571 1090.06 512.4C1090.66 513.229 1091.46 513.888 1092.38 514.311L1130.88 536.511C1133.4 537.795 1136.2 538.465 1139.04 538.465C1141.87 538.465 1144.67 537.795 1147.2 536.511L1185.63 514.311C1186.54 513.893 1187.33 513.248 1187.92 512.438C1188.51 511.628 1188.88 510.679 1188.99 509.684C1189 509.607 1189 509.528 1188.99 509.451H1188.93Z" fill="#42E8E0"/>
<path d="M1188.93 497.748V489.039L1186.54 487.697C1185.86 491.819 1181.03 494.521 1176.97 495.085L1149.43 511.2L1137.42 515.535L1099.05 495.726L1099.94 495.221C1096.66 493.685 1094.89 490.186 1093.12 486.978L1090.54 488.533L1089 488.961V497.884C1089.1 498.898 1089.47 499.868 1090.06 500.697C1090.66 501.526 1091.46 502.185 1092.38 502.608L1130.88 524.808C1133.4 526.092 1136.2 526.762 1139.04 526.762C1141.87 526.762 1144.67 526.092 1147.2 524.808L1185.63 502.608C1186.54 502.19 1187.33 501.545 1187.92 500.735C1188.51 499.925 1188.88 498.976 1188.99 497.981C1189 497.904 1189 497.825 1188.99 497.748H1188.93Z" fill="url(#paint3_linear_7907_2)"/>
<path d="M1130.88 515.904L1092.44 493.704C1087.93 491.099 1087.93 486.861 1092.44 484.275L1130.88 462.133C1133.4 460.849 1136.2 460.18 1139.04 460.18C1141.87 460.18 1144.67 460.849 1147.2 462.133L1185.63 484.334C1190.12 486.919 1190.12 491.157 1185.63 493.762L1147.14 515.904C1144.62 517.17 1141.83 517.829 1139.01 517.829C1136.18 517.829 1133.4 517.17 1130.88 515.904Z" fill="url(#paint4_linear_7907_2)"/>
<path d="M1185.57 493.763L1147.14 515.905C1144.61 517.18 1141.81 517.844 1138.98 517.844C1136.14 517.844 1133.35 517.18 1130.82 515.905L1092.38 493.705C1091.54 493.309 1090.81 492.727 1090.23 492.002C1089.65 491.278 1089.24 490.43 1089.04 489.525C1088.77 491.469 1089.89 493.413 1092.38 494.774L1130.87 517.033C1133.4 518.317 1136.2 518.986 1139.04 518.986C1141.87 518.986 1144.67 518.317 1147.2 517.033L1185.63 494.832C1186.66 494.405 1187.53 493.672 1188.12 492.733C1188.72 491.794 1189.01 490.694 1188.95 489.583C1188.75 490.492 1188.33 491.341 1187.75 492.066C1187.16 492.79 1186.42 493.371 1185.57 493.763Z" fill="white"/>
<path d="M1119.68 488L1032.25 435.683L1004.46 451.718H1004.13L950 419.81L950.323 419L1004.46 450.746L1032.25 434.711L1032.9 435.035L1120 487.19L1119.68 488Z" fill="url(#paint5_linear_7907_2)"/>
<g opacity="0.3">
<path opacity="0.3" d="M685 555.204V546.494L682.589 545.153C681.909 549.274 677.068 551.977 673.024 552.54L645.459 568.656L633.445 572.991L595.05 553.182L595.945 552.676C592.659 551.141 590.89 547.641 589.121 544.434L586.536 545.989L585 546.417V555.34C585.102 556.354 585.468 557.324 586.061 558.153C586.655 558.982 587.455 559.641 588.383 560.064L626.835 582.264C629.365 583.548 632.162 584.218 635 584.218C637.837 584.218 640.634 583.548 643.165 582.264L681.617 560.064C682.531 559.649 683.323 559.005 683.916 558.194C684.508 557.384 684.882 556.434 685 555.437C685 555.437 685 555.281 685 555.204Z" fill="url(#paint6_linear_7907_2)"/>
<path opacity="0.3" d="M673.024 552.578L645.458 568.694L634.999 572.466V584.246C637.842 584.305 640.653 583.636 643.164 582.302L681.616 560.102C682.531 559.687 683.323 559.043 683.915 558.233C684.508 557.422 684.881 556.472 684.999 555.475C684.999 555.475 684.999 555.319 684.999 555.242V546.533L682.783 545.308H682.55C681.811 549.313 677.029 551.976 673.024 552.578Z" fill="#0F054C"/>
<path opacity="0.3" d="M626.835 573.419L588.383 551.218C583.872 548.613 583.872 544.375 588.383 541.79L626.835 519.531C629.365 518.247 632.162 517.577 635 517.577C637.837 517.577 640.634 518.247 643.165 519.531L681.617 541.731C686.108 544.317 686.108 548.555 681.617 551.16L643.165 573.419C640.632 574.694 637.835 575.358 635 575.358C632.164 575.358 629.368 574.694 626.835 573.419Z" fill="url(#paint7_linear_7907_2)"/>
<g opacity="0.3">
<path opacity="0.3" d="M626.835 573.419L588.383 551.218C583.873 548.613 583.873 544.375 588.383 541.79L626.835 519.531C629.365 518.247 632.163 517.577 635 517.577C637.838 517.577 640.635 518.247 643.165 519.531L681.617 541.731C686.108 544.317 686.108 548.555 681.617 551.16L643.165 573.419C640.632 574.694 637.836 575.358 635 575.358C632.165 575.358 629.368 574.694 626.835 573.419Z" fill="#0F054C"/>
</g>
</g>
<path d="M635 541.11C632.474 541.165 629.977 540.569 627.749 539.379L589.296 517.179C588.395 516.856 587.615 516.262 587.064 515.479C586.513 514.696 586.217 513.762 586.217 512.805C586.217 511.847 586.513 510.913 587.064 510.13C587.615 509.347 588.395 508.754 589.296 508.431L627.749 486.23C629.996 485.09 632.48 484.495 635 484.495C637.52 484.495 640.004 485.09 642.251 486.23L680.703 508.431C681.605 508.754 682.384 509.347 682.936 510.13C683.487 510.913 683.783 511.847 683.783 512.805C683.783 513.762 683.487 514.696 682.936 515.479C682.384 516.262 681.605 516.856 680.703 517.179L642.251 539.379C640.022 540.569 637.525 541.165 635 541.11ZM628.079 538.796C630.222 539.879 632.589 540.444 634.99 540.444C637.391 540.444 639.758 539.879 641.901 538.796L680.353 516.596C681.212 516.4 681.979 515.918 682.529 515.229C683.078 514.541 683.377 513.686 683.377 512.805C683.377 511.924 683.078 511.069 682.529 510.38C681.979 509.691 681.212 509.21 680.353 509.014L641.901 486.814C639.761 485.721 637.393 485.152 634.99 485.152C632.587 485.152 630.219 485.721 628.079 486.814L589.627 509.014C588.768 509.21 588.001 509.691 587.451 510.38C586.902 511.069 586.603 511.924 586.603 512.805C586.603 513.686 586.902 514.541 587.451 515.229C588.001 515.918 588.768 516.4 589.627 516.596L628.079 538.796Z" fill="#42E8E0"/>
<path opacity="0.4" d="M685 504.29V491.11L682.589 489.768C681.909 493.89 677.068 496.592 673.024 497.155L645.458 513.271L633.445 517.587L595.05 497.778L595.945 497.272C592.659 495.736 590.89 492.237 589.121 489.03L586.536 490.585L585 491.012V504.407C585.093 505.421 585.456 506.392 586.051 507.219C586.646 508.046 587.451 508.7 588.383 509.111L626.835 531.312C629.365 532.596 632.162 533.265 635 533.265C637.837 533.265 640.634 532.596 643.165 531.312L681.617 509.111C682.531 508.696 683.323 508.052 683.916 507.242C684.508 506.431 684.882 505.482 685 504.484C685 504.484 685 504.329 685 504.251V504.29Z" fill="#42E8E0"/>
<path d="M685 492.568V483.859L682.589 482.517C681.909 486.638 677.068 489.341 673.024 489.904L645.458 506.02L633.445 510.355L595.05 490.546L595.945 490.04C592.659 488.505 590.89 485.006 589.121 481.817L586.536 483.353L585 483.781V492.723C585.105 493.734 585.472 494.7 586.066 495.525C586.659 496.35 587.458 497.006 588.383 497.428L626.835 519.628C629.365 520.912 632.162 521.582 635 521.582C637.837 521.582 640.634 520.912 643.165 519.628L681.617 497.428C682.531 497.013 683.323 496.369 683.916 495.559C684.508 494.748 684.882 493.798 685 492.801C685 492.801 685 492.645 685 492.568Z" fill="url(#paint8_linear_7907_2)"/>
<path d="M626.835 510.783L588.383 488.582C583.872 485.977 583.872 481.739 588.383 479.154L626.835 456.953C629.365 455.669 632.162 455 635 455C637.837 455 640.634 455.669 643.165 456.953L681.617 479.154C686.108 481.759 686.108 485.977 681.617 488.582L643.165 510.783C640.634 512.067 637.837 512.736 635 512.736C632.162 512.736 629.365 512.067 626.835 510.783Z" fill="url(#paint9_linear_7907_2)"/>
<path d="M635 506.739C632.719 506.79 630.463 506.255 628.449 505.184L598.414 487.843C597.593 487.552 596.882 487.013 596.379 486.301C595.876 485.589 595.607 484.739 595.607 483.868C595.607 482.996 595.876 482.146 596.379 481.434C596.882 480.723 597.593 480.184 598.414 479.892L628.449 462.552C630.478 461.518 632.723 460.978 635 460.978C637.277 460.978 639.522 461.518 641.551 462.552L671.586 479.892C672.408 480.184 673.118 480.723 673.621 481.434C674.124 482.146 674.394 482.996 674.394 483.868C674.394 484.739 674.124 485.589 673.621 486.301C673.118 487.013 672.408 487.552 671.586 487.843L641.551 505.184C639.537 506.255 637.281 506.79 635 506.739ZM628.779 504.601C630.704 505.579 632.832 506.089 634.99 506.089C637.149 506.089 639.277 505.579 641.201 504.601L671.256 487.26C671.977 487.032 672.607 486.581 673.054 485.971C673.501 485.361 673.742 484.624 673.742 483.868C673.742 483.112 673.501 482.375 673.054 481.765C672.607 481.155 671.977 480.703 671.256 480.476L641.201 463.154C639.277 462.176 637.149 461.666 634.99 461.666C632.832 461.666 630.704 462.176 628.779 463.154L598.744 480.495C598.069 480.789 597.485 481.257 597.051 481.851C596.617 482.446 596.349 483.145 596.276 483.878C596.352 484.612 596.62 485.312 597.054 485.91C597.487 486.507 598.07 486.979 598.744 487.28L628.779 504.601Z" fill="#5351AF"/>
<path d="M681.617 488.583L643.164 510.783C640.634 512.067 637.837 512.737 634.999 512.737C632.162 512.737 629.365 512.067 626.835 510.783L588.382 488.583C587.543 488.187 586.806 487.605 586.226 486.88C585.647 486.156 585.24 485.309 585.039 484.403C584.994 485.517 585.29 486.618 585.888 487.559C586.485 488.501 587.355 489.237 588.382 489.671L626.835 511.872C629.367 513.147 632.164 513.811 634.999 513.811C637.835 513.811 640.631 513.147 643.164 511.872L681.617 489.671C682.643 489.239 683.512 488.502 684.107 487.56C684.701 486.618 684.992 485.516 684.941 484.403C684.742 485.307 684.34 486.154 683.763 486.878C683.187 487.603 682.453 488.186 681.617 488.583Z" fill="white"/>
<path d="M639.709 503.441L726.839 453.308L754.723 468.352L755.046 468.35L809.002 437.768L808.674 437.002L754.718 467.43L726.834 452.386L726.189 452.697L639.382 502.675L639.709 503.441Z" fill="url(#paint10_linear_7907_2)"/>
<g opacity="0.3">
<path opacity="0.3" d="M1187.9 202.896V194.187L1185.5 192.845C1184.82 196.947 1179.98 199.669 1175.94 200.232L1148.4 216.329L1136.4 220.683L1098.04 200.874L1098.93 200.349C1095.65 198.833 1093.88 195.314 1092.12 192.126L1089.53 193.662L1088 194.089V203.032C1088.09 204.047 1088.45 205.019 1089.05 205.846C1089.64 206.674 1090.45 207.326 1091.38 207.736L1129.79 229.937C1132.32 231.221 1135.12 231.89 1137.95 231.89C1140.79 231.89 1143.58 231.221 1146.11 229.937L1184.52 207.736C1185.44 207.322 1186.23 206.678 1186.82 205.867C1187.41 205.057 1187.79 204.107 1187.9 203.11V202.896Z" fill="url(#paint11_linear_7907_2)"/>
<path opacity="0.3" d="M1129.79 221.091L1091.48 198.891C1086.97 196.286 1086.97 192.067 1091.48 189.462L1129.79 167.184C1132.32 165.9 1135.12 165.231 1137.95 165.231C1140.79 165.231 1143.58 165.9 1146.11 167.184L1184.52 189.385C1189.03 191.99 1189.03 196.208 1184.52 198.813L1146.11 221.014C1143.59 222.31 1140.8 222.992 1137.96 223.006C1135.13 223.019 1132.33 222.363 1129.79 221.091Z" fill="url(#paint12_linear_7907_2)"/>
<g opacity="0.3">
<path opacity="0.3" d="M1129.79 221.091L1091.48 198.891C1086.97 196.286 1086.97 192.067 1091.48 189.462L1129.79 167.184C1132.32 165.9 1135.12 165.231 1137.95 165.231C1140.79 165.231 1143.58 165.9 1146.11 167.184L1184.52 189.385C1189.03 191.99 1189.03 196.208 1184.52 198.813L1146.11 221.014C1143.59 222.31 1140.8 222.992 1137.96 223.006C1135.13 223.019 1132.33 222.363 1129.79 221.091Z" fill="#0F054C"/>
</g>
</g>
<path d="M1137.95 194.498C1135.43 194.543 1132.94 193.948 1130.71 192.768L1092.29 170.567C1091.39 170.248 1090.6 169.655 1090.04 168.87C1089.49 168.085 1089.19 167.146 1089.19 166.183C1089.19 165.221 1089.49 164.282 1090.04 163.497C1090.6 162.712 1091.39 162.118 1092.29 161.8L1130.71 139.599C1132.96 138.467 1135.44 137.878 1137.95 137.878C1140.47 137.878 1142.95 138.467 1145.2 139.599L1183.61 161.8C1184.52 162.118 1185.31 162.712 1185.86 163.497C1186.42 164.282 1186.72 165.221 1186.72 166.183C1186.72 167.146 1186.42 168.085 1185.86 168.87C1185.31 169.655 1184.52 170.248 1183.61 170.567L1145.2 192.768C1142.97 193.948 1140.47 194.543 1137.95 194.498ZM1137.95 138.53C1135.55 138.488 1133.18 139.057 1131.06 140.182L1092.62 162.383C1091.83 162.648 1091.13 163.158 1090.64 163.84C1090.15 164.522 1089.88 165.342 1089.88 166.183C1089.88 167.025 1090.15 167.844 1090.64 168.527C1091.13 169.209 1091.83 169.719 1092.62 169.984L1131.06 192.184C1133.2 193.267 1135.56 193.832 1137.96 193.832C1140.36 193.832 1142.73 193.267 1144.87 192.184L1183.28 169.984C1184.08 169.719 1184.77 169.209 1185.27 168.527C1185.76 167.844 1186.02 167.025 1186.02 166.183C1186.02 165.342 1185.76 164.522 1185.27 163.84C1184.77 163.158 1184.08 162.648 1183.28 162.383L1144.87 140.182C1142.74 139.057 1140.36 138.488 1137.95 138.53Z" fill="#42E8E0"/>
<path opacity="0.4" d="M1187.9 157.659V144.498L1185.5 143.156C1184.82 147.258 1179.98 149.98 1175.94 150.544L1148.4 166.659L1136.4 171.072L1098.04 151.263L1098.93 150.757C1095.65 149.222 1093.88 145.722 1092.12 142.515L1089.53 144.051L1088 144.498V157.873C1088.12 158.883 1088.51 159.844 1089.12 160.659C1089.73 161.474 1090.54 162.115 1091.48 162.519L1129.79 184.68C1132.32 185.964 1135.12 186.634 1137.95 186.634C1140.79 186.634 1143.58 185.964 1146.11 184.68L1184.52 162.48C1185.44 162.065 1186.23 161.421 1186.82 160.611C1187.41 159.8 1187.79 158.85 1187.9 157.853V157.62V157.659Z" fill="#42E8E0"/>
<path d="M1187.9 145.956V137.247L1185.5 135.905C1184.82 140.007 1179.98 142.729 1175.94 143.292L1148.4 159.408L1136.4 163.743L1098.04 143.856L1098.93 143.351C1095.65 141.815 1093.88 138.316 1092.12 135.108L1089.53 136.644L1088 137.091V146.014C1088.1 147.028 1088.47 147.998 1089.06 148.827C1089.65 149.656 1090.45 150.315 1091.38 150.738L1129.79 173.016C1132.33 174.291 1135.12 174.956 1137.95 174.956C1140.78 174.956 1143.58 174.291 1146.11 173.016L1184.52 150.816C1185.44 150.401 1186.23 149.757 1186.82 148.947C1187.41 148.136 1187.79 147.186 1187.9 146.189V145.956Z" fill="url(#paint13_linear_7907_2)"/>
<path d="M1098.93 143.428L1135.35 122.472C1136.16 122.065 1137.05 121.853 1137.96 121.853C1138.87 121.853 1139.76 122.065 1140.57 122.472L1176.33 143.137L1175.94 143.37C1179.98 142.806 1184.82 140.084 1185.49 135.983L1145.35 113.627L1133.7 110.536L1124.18 116.134L1092.14 135.263C1093.88 138.393 1095.65 141.912 1098.93 143.428Z" fill="url(#paint14_linear_7907_2)"/>
<path opacity="0.3" d="M1137.95 111.605L1133.68 110.458L1124.16 116.057L1092.12 135.186C1093.88 138.393 1095.65 141.893 1098.93 143.428L1135.35 122.472C1136.15 122.033 1137.04 121.811 1137.95 121.83V111.605Z" fill="#0F054C"/>
<path d="M1129.79 164.152L1091.48 141.912C1086.97 139.327 1086.97 135.089 1091.48 132.484L1129.89 110.283C1132.42 109.008 1135.22 108.344 1138.05 108.344C1140.88 108.344 1143.68 109.008 1146.21 110.283L1184.62 132.484C1189.13 135.089 1189.13 139.327 1184.62 141.912L1146.21 164.113C1143.67 165.419 1140.86 166.104 1138 166.11C1135.15 166.117 1132.34 165.446 1129.79 164.152ZM1140.57 113.608C1139.76 113.201 1138.87 112.989 1137.96 112.989C1137.05 112.989 1136.16 113.201 1135.35 113.608L1096.93 135.808C1096.61 135.912 1096.33 136.115 1096.14 136.387C1095.94 136.66 1095.83 136.988 1095.83 137.324C1095.83 137.661 1095.94 137.989 1096.14 138.262C1096.33 138.534 1096.61 138.737 1096.93 138.841L1135.35 161.041C1136.16 161.448 1137.05 161.66 1137.96 161.66C1138.87 161.66 1139.76 161.448 1140.57 161.041L1178.99 138.841C1179.3 138.728 1179.57 138.521 1179.76 138.25C1179.95 137.979 1180.05 137.656 1180.05 137.324C1180.05 136.993 1179.95 136.67 1179.76 136.399C1179.57 136.128 1179.3 135.921 1178.99 135.808L1140.57 113.608Z" fill="url(#paint15_linear_7907_2)"/>
<path d="M1178.99 135.73L1140.57 113.53C1139.76 113.123 1138.87 112.911 1137.96 112.911C1137.05 112.911 1136.16 113.123 1135.35 113.53L1096.93 135.73C1095.96 136.294 1095.65 137.071 1095.96 137.791C1096.18 137.377 1096.52 137.038 1096.93 136.819L1135.35 114.696C1136.16 114.289 1137.05 114.077 1137.96 114.077C1138.87 114.077 1139.76 114.289 1140.57 114.696L1178.99 136.897C1179.4 137.116 1179.73 137.455 1179.94 137.869C1180.25 137.071 1179.94 136.294 1178.99 135.73Z" fill="white"/>
<path d="M1184.53 141.912L1146.11 164.112C1143.58 165.397 1140.79 166.066 1137.95 166.066C1135.12 166.066 1132.32 165.397 1129.8 164.112L1091.48 141.912C1090.64 141.522 1089.9 140.944 1089.32 140.222C1088.74 139.501 1088.34 138.655 1088.14 137.752C1088.09 138.863 1088.39 139.961 1088.99 140.899C1089.58 141.837 1090.45 142.57 1091.48 143.001L1129.8 165.24C1132.32 166.524 1135.12 167.193 1137.95 167.193C1140.79 167.193 1143.58 166.524 1146.11 165.24L1184.53 143.039C1185.55 142.609 1186.42 141.876 1187.01 140.938C1187.61 140 1187.91 138.902 1187.87 137.791C1187.66 138.687 1187.25 139.525 1186.67 140.239C1186.09 140.953 1185.36 141.526 1184.53 141.912Z" fill="white"/>
<path d="M1130.88 163.53L1092.47 141.329C1088.58 139.074 1088.58 135.497 1092.47 133.164L1130.88 110.964C1133.07 109.844 1135.49 109.261 1137.95 109.261C1140.41 109.261 1142.83 109.844 1145.02 110.964L1183.44 133.164C1187.32 135.419 1187.32 138.996 1183.44 141.329L1145.02 163.53C1142.83 164.649 1140.41 165.233 1137.95 165.233C1135.49 165.233 1133.07 164.649 1130.88 163.53ZM1141.64 112.986C1140.5 112.4 1139.23 112.095 1137.95 112.095C1136.67 112.095 1135.4 112.4 1134.26 112.986L1095.85 135.108C1095.4 135.258 1095.01 135.546 1094.73 135.929C1094.46 136.313 1094.31 136.774 1094.31 137.247C1094.31 137.72 1094.46 138.18 1094.73 138.564C1095.01 138.948 1095.4 139.235 1095.85 139.385L1134.2 161.586C1135.35 162.16 1136.61 162.46 1137.89 162.46C1139.17 162.46 1140.44 162.16 1141.58 161.586L1180.02 139.385C1180.47 139.235 1180.86 138.948 1181.13 138.564C1181.41 138.18 1181.56 137.72 1181.56 137.247C1181.56 136.774 1181.41 136.313 1181.13 135.929C1180.86 135.546 1180.47 135.258 1180.02 135.108L1141.64 112.986Z" fill="url(#paint16_linear_7907_2)"/>
<path opacity="0.4" d="M1140.57 113.53C1139.76 113.123 1138.87 112.911 1137.96 112.911C1137.06 112.911 1136.16 113.123 1135.35 113.53L1096.93 135.73C1096.61 135.834 1096.34 136.037 1096.14 136.309C1095.94 136.582 1095.83 136.91 1095.83 137.246C1095.83 137.583 1095.94 137.911 1096.14 138.184C1096.34 138.456 1096.61 138.659 1096.93 138.763L1135.35 160.963C1136.16 161.37 1137.06 161.582 1137.96 161.582C1138.87 161.582 1139.76 161.37 1140.57 160.963L1178.99 138.763C1179.3 138.65 1179.57 138.443 1179.76 138.172C1179.95 137.901 1180.05 137.578 1180.05 137.246C1180.05 136.915 1179.95 136.592 1179.76 136.321C1179.57 136.05 1179.3 135.843 1178.99 135.73L1140.57 113.53Z" fill="#42E8E0"/>
<path d="M1111.59 181.78L1022.57 231.333L1022.56 263.421L1022.4 263.701L967.701 294.629L967.162 293.944L1021.72 262.935L1021.73 230.847L1022.34 230.449L1111.05 181.095L1111.59 181.78Z" fill="url(#paint17_linear_7907_2)"/>
<path opacity="0.5" d="M1056.02 322.296L1071.09 331.015V365.83L1056.02 357.126V322.296Z" fill="#758EF5"/>
<path opacity="0.2" d="M1040.96 331.015L1056.02 339.719V357.126L1040.96 348.423V331.015Z" fill="#758EF5"/>
<path opacity="0.5" d="M1025.9 270.059L1040.96 278.778V348.423L1025.9 339.719V270.059Z" fill="#758EF5"/>
<path opacity="0.2" d="M1010.82 243.948L1025.9 252.652V339.719L1010.82 331.015V243.948Z" fill="#758EF5"/>
<path opacity="0.5" d="M995.757 252.652L1010.82 261.355V331.015L995.757 322.296V252.652Z" fill="#758EF5"/>
<path opacity="0.2" d="M980.693 191.711L995.756 200.415V322.296L980.693 313.592V191.711Z" fill="#758EF5"/>
<path opacity="0.5" d="M965.632 200.415L980.694 209.119V313.593L965.632 304.889V200.415Z" fill="#758EF5"/>
<path opacity="0.2" d="M950.569 209.118L965.632 217.822V304.888L950.569 296.185V209.118Z" fill="#758EF5"/>
<path opacity="0.5" d="M935.492 165.585L950.57 174.304V296.186L935.492 287.482V165.585Z" fill="#758EF5"/>
<path opacity="0.2" d="M920.429 122.067L935.491 130.77V287.482L920.429 278.762V122.067Z" fill="#758EF5"/>
<path opacity="0.5" d="M905.366 130.771L920.429 139.474V278.763L905.366 270.059V130.771Z" fill="#758EF5"/>
<path opacity="0.2" d="M890.304 87.2368L905.366 95.9404V270.059L890.304 261.355V87.2368Z" fill="#758EF5"/>
<path opacity="0.5" d="M875.225 78.5334L890.303 87.237V261.355L875.225 252.652V78.5334Z" fill="#758EF5"/>
<path opacity="0.2" d="M860.163 35L875.226 43.7036V252.652L860.163 243.948V35Z" fill="#758EF5"/>
<path opacity="0.4" d="M874.96 495C951.176 495 1012.96 459.296 1012.96 415.254C1012.96 371.211 951.176 335.507 874.96 335.507C798.744 335.507 736.959 371.211 736.959 415.254C736.959 459.296 798.744 495 874.96 495Z" fill="#0F054C"/>
<path d="M874.961 463.294C961.708 463.294 1032.03 422.657 1032.03 372.528C1032.03 322.399 961.708 281.762 874.961 281.762C788.213 281.762 717.891 322.399 717.891 372.528C717.891 422.657 788.213 463.294 874.961 463.294Z" fill="url(#paint18_linear_7907_2)"/>
<path opacity="0.48" d="M1032.05 342.641H1028.16C1021.86 326.477 1007.82 311.106 986.036 298.533C924.699 263.081 825.239 263.081 763.979 298.533C743.404 310.422 729.817 324.783 722.969 339.968H718.046V360.095C716.82 384.201 732.131 408.54 763.979 426.926C825.317 462.362 924.776 462.362 986.114 426.926C1016.78 409.192 1032.12 385.972 1032.12 362.737L1032.05 342.641Z" fill="url(#paint19_linear_7907_2)"/>
<path opacity="0.48" d="M1028.17 334.838C1027.95 334.279 1027.71 333.719 1027.47 333.16V319.933H1019.24V318.985C1017.09 316.098 1014.75 313.351 1012.25 310.764V319.933H1007.59V306.21C1005.41 304.22 1003.07 302.272 1000.57 300.366V319.965H995.913V296.884C993.661 295.33 991.254 293.776 988.863 292.315V319.887H984.204V289.58C981.906 288.285 979.551 287.041 977.139 285.85V319.887H972.48V283.689C970.151 282.653 967.791 281.617 965.399 280.581V319.887H960.741V288.103H953.644V319.933H948.986V296.884H941.858V319.98H937.2V305.619H930.057V319.98H925.491V314.369H918.395V319.98H831.653V314.369H824.479V319.98H819.913V305.619H812.801V319.98H808.143V296.884H801.015V319.98H796.357V288.103H789.26V319.933H784.602V280.596C782.21 281.57 779.85 282.606 777.521 283.705V319.98H772.862V285.865C770.455 287.062 768.095 288.29 765.797 289.58V319.933H761.138V292.315C758.685 293.786 756.335 295.304 754.088 296.869V319.933H749.43V300.288C746.93 302.184 744.6 304.143 742.411 306.132V319.933H737.752V310.608C735.258 313.199 732.925 315.939 730.764 318.814V319.856H722.534V332.056H719.041V365.798C720.403 372.098 722.756 378.142 726.013 383.703V362.674H730.764V390.914C732.916 393.791 735.25 396.527 737.752 399.105V362.674H742.411V403.674C744.6 405.648 746.945 407.607 749.43 409.503V362.674H754.088V412.922C756.345 414.476 758.695 415.999 761.138 417.491V362.674H765.797V420.18C768.095 421.455 770.45 422.693 772.862 423.895V362.674H777.521V426.133C779.85 427.169 782.21 428.205 784.602 429.241V362.721H789.26V431.106C791.589 431.992 793.919 432.831 796.357 433.64V362.674H801.015V435.007C803.376 435.738 805.674 436.422 808.143 437.074V362.674H812.801V438.318C815.162 438.893 817.537 439.452 819.944 439.965V362.721H824.51V440.913C826.886 441.38 829.277 441.799 831.684 442.203V362.674H836.234V442.856C838.61 443.214 841.016 443.524 843.423 443.82V362.674H847.942V444.317C850.334 444.55 852.74 444.752 855.163 444.939V362.674H859.651V445.234C862.073 445.358 864.48 445.467 866.902 445.545V362.674H871.375V445.638C873.818 445.638 876.256 445.638 878.688 445.638V362.674H883.161V445.545C885.583 445.545 887.99 445.358 890.412 445.234V362.674H894.9V444.939C897.323 444.752 899.729 444.55 902.121 444.301V362.674H906.64V443.804C909.047 443.524 911.453 443.198 913.829 442.856V362.674H918.395V442.141C920.802 441.753 923.193 441.317 925.569 440.851V362.674H930.134V439.872C932.541 439.344 934.917 438.8 937.277 438.209V362.674H941.936V437.059C944.327 436.406 946.703 435.707 949.063 434.992V362.674H953.722V433.5C956.113 432.707 958.489 431.945 960.818 430.982V362.674H965.477V429.163C967.868 428.184 970.229 427.174 972.558 426.055V362.674H977.216V423.895C979.629 422.693 981.984 421.455 984.282 420.18V362.674H988.94V417.46C991.394 415.968 993.744 414.44 995.99 412.875V362.674H1000.65V409.456C1003.13 407.539 1005.47 405.591 1007.67 403.612V362.674H1012.33V399.058C1014.83 396.474 1017.17 393.728 1019.31 390.837V362.674H1023.99V383.641C1027.27 378.031 1029.63 371.927 1030.96 365.565V334.854L1028.17 334.838Z" fill="url(#paint20_linear_7907_2)"/>
<path d="M874.961 425.636C961.708 425.636 1032.03 384.998 1032.03 334.87C1032.03 284.741 961.708 244.104 874.961 244.104C788.213 244.104 717.891 284.741 717.891 334.87C717.891 384.998 788.213 425.636 874.961 425.636Z" fill="url(#paint21_linear_7907_2)"/>
<path opacity="0.3" d="M875.023 244.041C839.432 244.041 803.841 250.989 774.865 264.868L728 366.824C735.64 378.558 747.581 389.547 763.902 398.981C774.434 404.983 785.554 409.889 797.086 413.621L875.023 244.041Z" fill="#91A2FA"/>
<path opacity="0.3" d="M919.03 247.74L838.406 423.149C857.889 425.797 877.602 426.318 897.197 424.703L971.407 263.236C954.679 255.858 937.078 250.65 919.03 247.74Z" fill="#91A2FA"/>
<g opacity="0.05">
<path opacity="0.05" d="M874.961 415.254C951.786 415.254 1014.06 379.265 1014.06 334.87C1014.06 290.475 951.786 254.486 874.961 254.486C798.136 254.486 735.857 290.475 735.857 334.87C735.857 379.265 798.136 415.254 874.961 415.254Z" fill="url(#paint22_linear_7907_2)"/>
<g opacity="0.05">
<path opacity="0.05" d="M626.491 334.528L625 333.658L867.337 193.623L868.828 194.493L626.491 334.528Z" fill="#91A2FA"/>
<path opacity="0.05" d="M630.761 336.983L629.27 336.128L871.607 196.094L873.098 196.949L630.761 336.983Z" fill="#91A2FA"/>
<path opacity="0.05" d="M635.032 339.455L633.541 338.6L875.878 198.566L877.369 199.42L635.032 339.455Z" fill="#91A2FA"/>
<path opacity="0.05" d="M639.302 341.926L637.811 341.071L880.148 201.037L881.639 201.891L639.302 341.926Z" fill="#91A2FA"/>
<path opacity="0.05" d="M643.572 344.397L642.082 343.527L884.418 203.492L885.909 204.363L643.572 344.397Z" fill="#91A2FA"/>
<path opacity="0.05" d="M647.842 346.853L646.352 345.998L888.688 205.963L890.179 206.818L647.842 346.853Z" fill="#91A2FA"/>
<path opacity="0.05" d="M652.113 349.324L650.622 348.469L892.959 208.434L894.434 209.289L652.113 349.324Z" fill="#91A2FA"/>
<path opacity="0.05" d="M656.383 351.795L654.893 350.94L897.229 210.906L898.705 211.761L656.383 351.795Z" fill="#91A2FA"/>
<path opacity="0.05" d="M660.653 354.267L659.163 353.396L901.499 213.362L902.975 214.217L660.653 354.267Z" fill="#91A2FA"/>
<path opacity="0.05" d="M664.924 356.722L663.433 355.867L905.77 215.833L907.245 216.688L664.924 356.722Z" fill="#91A2FA"/>
<path opacity="0.05" d="M669.178 359.193L667.703 358.338L910.04 218.304L911.515 219.159L669.178 359.193Z" fill="#91A2FA"/>
<path opacity="0.05" d="M673.449 361.664L671.974 360.81L914.311 220.775L915.786 221.63L673.449 361.664Z" fill="#91A2FA"/>
<path opacity="0.05" d="M677.719 364.12L676.244 363.265L918.581 223.23L920.056 224.085L677.719 364.12Z" fill="#91A2FA"/>
<path opacity="0.05" d="M681.99 366.591L680.515 365.736L922.852 225.702L924.327 226.557L681.99 366.591Z" fill="#91A2FA"/>
<path opacity="0.05" d="M686.26 369.062L684.785 368.207L927.122 228.173L928.597 229.028L686.26 369.062Z" fill="#91A2FA"/>
<path opacity="0.05" d="M690.531 371.533L689.04 370.679L931.377 230.629L932.868 231.499L690.531 371.533Z" fill="#91A2FA"/>
<path opacity="0.05" d="M694.801 374.005L693.31 373.135L935.647 233.1L937.138 233.955L694.801 374.005Z" fill="#91A2FA"/>
<path opacity="0.05" d="M699.071 376.461L697.581 375.606L939.917 235.572L941.408 236.426L699.071 376.461Z" fill="#91A2FA"/>
<path opacity="0.05" d="M703.341 378.932L701.851 378.077L944.187 238.042L945.678 238.897L703.341 378.932Z" fill="#91A2FA"/>
<path opacity="0.05" d="M707.612 381.403L706.121 380.533L948.458 240.498L949.949 241.368L707.612 381.403Z" fill="#91A2FA"/>
<path opacity="0.05" d="M711.882 383.858L710.392 383.003L952.728 242.969L954.219 243.824L711.882 383.858Z" fill="#91A2FA"/>
<path opacity="0.05" d="M716.152 386.33L714.662 385.475L956.998 245.44L958.489 246.295L716.152 386.33Z" fill="#91A2FA"/>
<path opacity="0.05" d="M720.423 388.801L718.932 387.946L961.269 247.912L962.76 248.767L720.423 388.801Z" fill="#91A2FA"/>
<path opacity="0.05" d="M724.693 391.272L723.202 390.417L965.539 250.367L967.03 251.238L724.693 391.272Z" fill="#91A2FA"/>
<path opacity="0.05" d="M728.963 393.727L727.473 392.873L969.81 252.838L971.3 253.693L728.963 393.727Z" fill="#91A2FA"/>
<path opacity="0.05" d="M733.234 396.198L731.743 395.344L974.08 255.309L975.555 256.164L733.234 396.198Z" fill="#91A2FA"/>
<path opacity="0.05" d="M737.504 398.67L736.014 397.815L978.351 257.781L979.826 258.635L737.504 398.67Z" fill="#91A2FA"/>
<path opacity="0.05" d="M741.759 401.141L740.284 400.271L982.621 260.236L984.096 261.107L741.759 401.141Z" fill="#91A2FA"/>
<path opacity="0.05" d="M746.029 403.597L744.554 402.742L986.891 262.708L988.366 263.562L746.029 403.597Z" fill="#91A2FA"/>
<path opacity="0.05" d="M750.299 406.068L748.824 405.213L991.161 265.178L992.636 266.033L750.299 406.068Z" fill="#91A2FA"/>
<path opacity="0.05" d="M754.57 408.539L753.095 407.684L995.432 267.649L996.907 268.504L754.57 408.539Z" fill="#91A2FA"/>
<path opacity="0.05" d="M758.84 411.01L757.365 410.14L999.702 270.106L1001.18 270.961L758.84 411.01Z" fill="#91A2FA"/>
<path opacity="0.05" d="M763.11 413.466L761.635 412.611L1003.96 272.577L1005.45 273.431L763.11 413.466Z" fill="#91A2FA"/>
<path opacity="0.05" d="M767.38 415.937L765.905 415.083L1008.24 275.048L1009.72 275.903L767.38 415.937Z" fill="#91A2FA"/>
<path opacity="0.05" d="M771.651 418.409L770.176 417.554L1012.5 277.504L1013.99 278.374L771.651 418.409Z" fill="#91A2FA"/>
<path opacity="0.05" d="M775.921 420.88L774.446 420.009L1016.77 279.975L1018.26 280.845L775.921 420.88Z" fill="#91A2FA"/>
<path opacity="0.05" d="M780.192 423.335L778.701 422.48L1021.04 282.446L1022.53 283.301L780.192 423.335Z" fill="#91A2FA"/>
<path opacity="0.05" d="M784.462 425.807L782.972 424.952L1025.31 284.918L1026.8 285.773L784.462 425.807Z" fill="#91A2FA"/>
<path opacity="0.05" d="M788.733 428.278L787.242 427.423L1029.58 287.373L1031.07 288.243L788.733 428.278Z" fill="#91A2FA"/>
<path opacity="0.05" d="M793.002 430.749L791.512 429.879L1033.85 289.844L1035.34 290.715L793.002 430.749Z" fill="#91A2FA"/>
<path opacity="0.05" d="M797.273 433.204L795.782 432.35L1038.12 292.315L1039.61 293.17L797.273 433.204Z" fill="#91A2FA"/>
<path opacity="0.05" d="M801.544 435.675L800.054 434.821L1042.39 294.786L1043.88 295.641L801.544 435.675Z" fill="#91A2FA"/>
<path opacity="0.05" d="M805.814 438.147L804.323 437.293L1046.66 297.258L1048.15 298.113L805.814 438.147Z" fill="#91A2FA"/>
<path opacity="0.05" d="M810.084 440.619L808.594 439.748L1050.93 299.714L1052.42 300.569L810.084 440.619Z" fill="#91A2FA"/>
<path opacity="0.05" d="M814.355 443.074L812.864 442.219L1055.2 302.185L1056.69 303.04L814.355 443.074Z" fill="#91A2FA"/>
<path opacity="0.05" d="M818.626 445.545L817.135 444.69L1059.47 304.656L1060.96 305.511L818.626 445.545Z" fill="#91A2FA"/>
<path opacity="0.05" d="M822.895 448.016L821.404 447.161L1063.74 307.111L1065.23 307.982L822.895 448.016Z" fill="#91A2FA"/>
<path opacity="0.05" d="M827.166 450.472L825.675 449.617L1068.01 309.582L1069.49 310.437L827.166 450.472Z" fill="#91A2FA"/>
<path opacity="0.05" d="M831.436 452.943L829.945 452.089L1072.28 312.054L1073.76 312.909L831.436 452.943Z" fill="#91A2FA"/>
<path opacity="0.05" d="M835.69 455.414L834.215 454.56L1076.55 314.525L1078.03 315.38L835.69 455.414Z" fill="#91A2FA"/>
<path opacity="0.05" d="M839.961 457.886L838.485 457.031L1080.82 316.981L1082.3 317.851L839.961 457.886Z" fill="#91A2FA"/>
<path opacity="0.05" d="M844.232 460.341L842.757 459.486L1085.09 319.452L1086.57 320.307L844.232 460.341Z" fill="#91A2FA"/>
<path opacity="0.05" d="M848.503 462.812L847.027 461.957L1089.36 321.923L1090.84 322.778L848.503 462.812Z" fill="#91A2FA"/>
<path opacity="0.05" d="M852.772 465.284L851.297 464.429L1093.63 324.395L1095.11 325.25L852.772 465.284Z" fill="#91A2FA"/>
<path opacity="0.05" d="M857.042 467.755L855.551 466.885L1097.89 326.851L1099.38 327.721L857.042 467.755Z" fill="#91A2FA"/>
<path opacity="0.05" d="M861.312 470.211L859.821 469.356L1102.16 329.321L1103.65 330.176L861.312 470.211Z" fill="#91A2FA"/>
<path opacity="0.05" d="M865.583 472.681L864.092 471.827L1106.43 331.792L1107.92 332.647L865.583 472.681Z" fill="#91A2FA"/>
<path opacity="0.05" d="M869.852 475.153L868.361 474.298L1110.7 334.264L1112.19 335.118L869.852 475.153Z" fill="#91A2FA"/>
<path opacity="0.05" d="M874.123 477.623L872.632 476.753L1114.97 336.719L1116.46 337.589L874.123 477.623Z" fill="#91A2FA"/>
<path opacity="0.05" d="M878.393 480.08L876.902 479.225L1119.24 339.191L1120.73 340.046L878.393 480.08Z" fill="#91A2FA"/>
<path opacity="0.05" d="M882.663 482.551L881.172 481.696L1123.51 341.662L1125 342.517L882.663 482.551Z" fill="#91A2FA"/>
</g>
</g>
<path d="M776.605 283.441C830.954 252.062 919 252.062 973.334 283.441C999.298 298.455 1012.84 317.913 1013.99 337.574C1015.23 316.111 1001.69 294.414 973.334 278.032C918.985 246.637 830.923 246.637 776.605 278.032C748.25 294.414 734.678 316.111 735.951 337.574C737.1 317.913 750.688 298.439 776.605 283.441Z" fill="url(#paint23_linear_7907_2)"/>
<path d="M917.96 317.851C909.677 317.116 901.343 318.512 893.751 321.907C903.068 314.136 900.92 306.194 887.307 298.081L886.297 297.491C881.882 294.858 877.142 292.815 872.198 291.414C867.518 290.049 862.676 289.322 857.803 289.253C853.15 289.283 848.518 289.889 844.013 291.056C841.498 291.699 839.096 292.414 836.808 293.201L828.05 288.134L815.162 295.579L822.367 299.76C821.093 300.444 819.805 301.159 818.485 301.92L813.826 304.656L806.683 300.521L793.794 307.966L800.938 312.1L792.04 317.245L788.561 319.265L787.614 319.794L772.831 328.342L785.72 335.802L800.503 327.254L893.394 380.967L878.595 389.516L891.484 396.96L906.282 388.412L910.708 385.863L919.606 380.719L926.873 384.915L939.762 377.47L935.103 374.813L932.448 373.258L941.004 368.316L948.271 372.512L961.16 365.068L956.501 362.41L952.806 360.265C957.883 355.836 960.57 351.36 960.912 346.852C961.284 340.117 955.694 333.383 944.141 326.648L943.364 326.181C935.589 321.617 926.926 318.776 917.96 317.851ZM831.435 314.836L835.581 312.427C845.851 306.5 855.686 306.241 865.086 311.65C870.583 314.758 873.564 317.726 874.076 320.353C874.589 322.98 872.011 325.933 866.312 329.197L861.297 332.087L831.435 314.836ZM914.233 362.674L878.564 342.112L883.72 339.128C888.621 336.02 894.316 334.401 900.118 334.465C905.232 334.714 911.133 336.786 917.82 340.682C923.783 344.133 927.003 347.319 927.479 350.241C927.96 353.162 925.351 356.271 919.715 359.566L914.233 362.674Z" fill="url(#paint24_linear_7907_2)"/>
<path d="M793.717 297.506V305.775L800.86 301.641L793.717 297.506Z" fill="url(#paint25_linear_7907_2)"/>
<path d="M815.161 285.119V293.388L822.366 289.3L815.161 285.119Z" fill="url(#paint26_linear_7907_2)"/>
<path d="M899.45 301.656V311.478L892.99 307.515L899.45 301.656Z" fill="url(#paint27_linear_7907_2)"/>
<path d="M960.99 334.87V346.868L951.3 340.869L960.99 334.87Z" fill="url(#paint28_linear_7907_2)"/>
<path d="M917.96 307.391C909.677 306.657 901.343 308.053 893.751 311.448C903.068 303.677 900.92 295.73 887.307 287.606L886.297 287.031C881.882 284.399 877.142 282.356 872.198 280.954C867.52 279.582 862.677 278.855 857.803 278.794C853.15 278.824 848.518 279.429 844.013 280.597C841.498 281.229 839.096 281.944 836.808 282.742L828.05 277.675L815.162 285.119L822.367 289.3C821.093 289.984 819.805 290.699 818.485 291.461L813.826 294.196L806.683 290.062L793.794 297.507L800.938 301.641L792.04 306.785L788.561 308.79L787.614 309.334L772.831 317.882L785.72 325.342L800.503 316.794L893.472 370.508L878.673 379.056L891.562 386.501L906.36 377.953L910.786 375.404L919.684 370.259L926.951 374.456L939.839 367.011L935.181 364.353L932.526 362.799L941.082 357.857L948.349 362.053L961.238 354.608L956.579 351.951L952.883 349.806C957.961 345.376 960.648 340.9 960.989 336.393C961.362 329.658 955.772 322.923 944.218 316.188L943.442 315.737C935.648 311.15 926.956 308.303 917.96 307.391ZM831.435 304.376L835.581 301.967C845.851 296.04 855.686 295.781 865.086 301.19C870.583 304.298 873.564 307.267 874.077 309.894C874.589 312.52 872.011 315.473 866.312 318.737L861.297 321.628L831.435 304.376ZM914.233 352.215L878.626 331.653L883.782 328.668C888.683 325.561 894.378 323.941 900.18 324.006C905.294 324.255 911.195 326.327 917.882 330.223C923.845 333.673 927.065 336.859 927.541 339.781C928.022 342.703 925.414 345.811 919.777 349.106L914.233 352.215Z" fill="url(#paint29_linear_7907_2)"/>
<path d="M961.206 354.624V365.083L948.317 372.528V362.068L961.206 354.624Z" fill="url(#paint30_linear_7907_2)"/>
<path d="M939.762 367.011V377.471L926.873 384.915V374.455L939.762 367.011Z" fill="url(#paint31_linear_7907_2)"/>
<path d="M891.498 386.501V396.961L878.594 389.516V379.056L891.498 386.501Z" fill="url(#paint32_linear_7907_2)"/>
<path d="M772.754 317.882V328.357L785.643 335.802V325.342L772.754 317.882Z" fill="url(#paint33_linear_7907_2)"/>
<path d="M800.425 327.254V316.794L785.642 325.342V335.802L800.425 327.254Z" fill="url(#paint34_linear_7907_2)"/>
<path d="M800.424 316.794V327.254L884.34 375.745L893.393 370.508L800.424 316.794Z" fill="url(#paint35_linear_7907_2)"/>
<path d="M876.887 259.226C871.404 259.34 865.983 258.045 861.141 255.465C856.762 252.947 854.355 249.528 854.355 245.86C854.355 242.192 856.762 238.788 861.141 236.255C869.822 231.25 883.953 231.25 892.649 236.255C897.012 238.788 899.419 242.208 899.419 245.86C899.419 249.512 897.012 252.947 892.649 255.465C887.802 258.045 882.376 259.34 876.887 259.226ZM876.887 234.203C871.702 234.108 866.578 235.333 861.995 237.762C858.191 239.969 856.095 242.845 856.095 245.86C856.095 248.875 858.191 251.766 862.011 253.973C870.21 258.713 883.564 258.713 891.779 253.973C895.583 251.766 897.695 248.891 897.695 245.86C897.695 242.829 895.583 239.969 891.779 237.762C887.197 235.331 882.072 234.106 876.887 234.203Z" fill="#91A2FA"/>
<path d="M886.22 251.253C883.334 252.722 880.142 253.487 876.903 253.487C873.665 253.487 870.473 252.722 867.586 251.253C862.431 248.284 862.431 243.482 867.586 240.482C870.473 239.014 873.665 238.248 876.903 238.248C880.142 238.248 883.334 239.014 886.22 240.482C891.36 243.451 891.36 248.284 886.22 251.253Z" fill="#97A6FC"/>
<path d="M931.282 219.764L922.043 214.433L937.773 205.341L947.028 210.672L931.282 219.764Z" fill="#91A2FA"/>
<path opacity="0.8" d="M914.667 211.341L903.021 207.906L913.13 196.452L924.776 199.886L914.667 211.341Z" fill="#91A2FA"/>
<path opacity="0.6" d="M894.357 206.274L881.453 205.093L884.931 192.395L897.836 193.576L894.357 206.274Z" fill="#91A2FA"/>
<path opacity="0.4" d="M872.337 205.093L859.417 206.274L855.938 193.576L868.843 192.395L872.337 205.093Z" fill="#91A2FA"/>
<path opacity="0.2" d="M850.753 207.906L839.106 211.341L829.013 199.871L840.643 196.452L850.753 207.906Z" fill="#91A2FA"/>
<path opacity="0.1" d="M831.73 214.433L822.49 219.764L806.76 210.672L815.999 205.341L831.73 214.433Z" fill="#91A2FA"/>
<path opacity="0.2" d="M900.444 234.141L897.198 232.26L920.677 218.692L923.923 220.572L900.444 234.141Z" fill="#91A2FA"/>
<path opacity="0.4" d="M893.006 230.504L888.922 229.292L904 212.195L908.084 213.408L893.006 230.504Z" fill="#91A2FA"/>
<path opacity="0.6" d="M884.015 228.375L879.48 227.955L884.667 209.01L889.201 209.429L884.015 228.375Z" fill="#91A2FA"/>
<path opacity="0.8" d="M874.31 227.955L869.775 228.375L864.573 209.429L869.108 209.01L874.31 227.955Z" fill="#91A2FA"/>
<path d="M864.853 229.292L860.769 230.504L845.69 213.408L849.79 212.195L864.853 229.292Z" fill="#91A2FA"/>
<path d="M856.591 232.26L853.345 234.141L829.866 220.572L833.112 218.692L856.591 232.26Z" fill="#91A2FA"/>
<path d="M850.302 236.55L848.221 238.912L818.64 230.193L820.72 227.831L850.302 236.55Z" fill="#91A2FA"/>
<path d="M846.621 241.756L845.906 244.367L813.11 241.368L813.825 238.741L846.621 241.756Z" fill="#91A2FA"/>
<path d="M845.906 247.352L846.621 249.978L813.825 252.978L813.11 250.351L845.906 247.352Z" fill="#91A2FA"/>
<path d="M848.221 252.823L850.302 255.185L820.72 263.889L818.64 261.526L848.221 252.823Z" fill="#91A2FA"/>
<path d="M853.345 257.594L856.591 259.475L833.112 273.043L829.866 271.162L853.345 257.594Z" fill="#91A2FA"/>
<path opacity="0.6" d="M969.11 201.813C1003.63 225.872 1005.56 260.267 974.934 285.507L987.356 296.962C1029.61 266.531 1028.68 222.717 984.608 192.83L969.11 201.813Z" fill="#97A6FC"/>
<path opacity="0.2" d="M895.568 314.168C859.061 317.478 820.395 311.059 792.273 294.771C786.132 291.279 780.403 287.109 775.192 282.338L754.12 286.534C760.899 293.206 768.527 298.954 776.807 303.63C812.382 324.177 862.213 331.482 907.898 325.56L895.568 314.168Z" fill="#91A2FA"/>
<path d="M736.852 257.47L757.924 253.274C754.197 233.193 765.688 212.351 792.273 196.964C836.311 171.522 906.112 170.061 953.132 192.566L968.583 183.645C913.006 156.229 829.401 157.689 776.853 188.059C744.103 206.974 730.78 232.867 736.852 257.47Z" fill="#97A6FC"/>
<path d="M863.983 291.585L855.737 286.829L961.61 225.64L969.856 230.396L863.983 291.585Z" fill="#97A6FC"/>
<path opacity="0.8" d="M875.691 298.361L867.445 293.59L913.472 266.997L921.717 271.768L875.691 298.361Z" fill="#97A6FC"/>
<path opacity="0.6" d="M888.223 305.604L879.978 300.832L953.241 258.511L961.486 263.267L888.223 305.604Z" fill="#97A6FC"/>
<path opacity="0.2" d="M900.568 312.722L892.307 307.966L949.343 275.017L957.588 279.773L900.568 312.722Z" fill="#97A6FC"/>
<rect x="60" y="874.863" width="120" height="1002.26" transform="rotate(-120 60 874.863)" fill="url(#paint36_linear_7907_2)"/>
<defs>
<linearGradient id="paint0_linear_7907_2" x1="699" y1="1175.62" x2="699" y2="1826.74" gradientUnits="userSpaceOnUse">
<stop stop-color="white" stop-opacity="0.04"/>
<stop offset="1" stop-color="white" stop-opacity="0.01"/>
</linearGradient>
<linearGradient id="paint1_linear_7907_2" x1="1098.95" y1="530.116" x2="1178.27" y2="575.884" gradientUnits="userSpaceOnUse">
<stop stop-color="#BCBEFF"/>
<stop offset="0.23" stop-color="#AAADF8"/>
<stop offset="0.68" stop-color="#7C83E5"/>
<stop offset="1" stop-color="#5761D7"/>
</linearGradient>
<linearGradient id="paint2_linear_7907_2" x1="1089" y1="547.437" x2="1188.94" y2="547.437" gradientUnits="userSpaceOnUse">
<stop stop-color="#E9E9FD"/>
<stop offset="0.36" stop-color="#D3D2F9"/>
<stop offset="0.71" stop-color="#C5C4F7"/>
<stop offset="1" stop-color="#C0BFF6"/>
</linearGradient>
<linearGradient id="paint3_linear_7907_2" x1="52945" y1="9528.62" x2="54696.4" y2="12071" gradientUnits="userSpaceOnUse">
<stop stop-color="#BCBEFF"/>
<stop offset="0.23" stop-color="#AAADF8"/>
<stop offset="0.68" stop-color="#7C83E5"/>
<stop offset="1" stop-color="#5761D7"/>
</linearGradient>
<linearGradient id="paint4_linear_7907_2" x1="52402" y1="14075.8" x2="57541.7" y2="14075.8" gradientUnits="userSpaceOnUse">
<stop stop-color="#E9E9FD"/>
<stop offset="0.36" stop-color="#D3D2F9"/>
<stop offset="0.71" stop-color="#C5C4F7"/>
<stop offset="1" stop-color="#C0BFF6"/>
</linearGradient>
<linearGradient id="paint5_linear_7907_2" x1="949.959" y1="453.479" x2="1120.05" y2="453.479" gradientUnits="userSpaceOnUse">
<stop stop-color="#5778FF"/>
<stop offset="0.1042" stop-color="#567FFF"/>
<stop offset="0.2607" stop-color="#5394FF"/>
<stop offset="0.4503" stop-color="#4DB6FF"/>
<stop offset="0.6638" stop-color="#46E4FF"/>
<stop offset="0.7742" stop-color="#42FFFF"/>
</linearGradient>
<linearGradient id="paint6_linear_7907_2" x1="43634.8" y1="11841.4" x2="45386.1" y2="14383.9" gradientUnits="userSpaceOnUse">
<stop stop-color="#BCBEFF"/>
<stop offset="0.23" stop-color="#AAADF8"/>
<stop offset="0.68" stop-color="#7C83E5"/>
<stop offset="1" stop-color="#5761D7"/>
</linearGradient>
<linearGradient id="paint7_linear_7907_2" x1="43116.6" y1="17439.7" x2="48259.8" y2="17439.7" gradientUnits="userSpaceOnUse">
<stop stop-color="#E9E9FD"/>
<stop offset="0.36" stop-color="#D3D2F9"/>
<stop offset="0.71" stop-color="#C5C4F7"/>
<stop offset="1" stop-color="#C0BFF6"/>
</linearGradient>
<linearGradient id="paint8_linear_7907_2" x1="43634.8" y1="10492.5" x2="45385.6" y2="13034.3" gradientUnits="userSpaceOnUse">
<stop stop-color="#BCBEFF"/>
<stop offset="0.23" stop-color="#AAADF8"/>
<stop offset="0.68" stop-color="#7C83E5"/>
<stop offset="1" stop-color="#5761D7"/>
</linearGradient>
<linearGradient id="paint9_linear_7907_2" x1="43116.6" y1="15503.9" x2="48259.8" y2="15503.9" gradientUnits="userSpaceOnUse">
<stop stop-color="#E9E9FD"/>
<stop offset="0.36" stop-color="#D3D2F9"/>
<stop offset="0.71" stop-color="#C5C4F7"/>
<stop offset="1" stop-color="#C0BFF6"/>
</linearGradient>
<linearGradient id="paint10_linear_7907_2" x1="809.231" y1="469.7" x2="639.141" y2="470.704" gradientUnits="userSpaceOnUse">
<stop stop-color="#5778FF"/>
<stop offset="0.1042" stop-color="#567FFF"/>
<stop offset="0.2607" stop-color="#5394FF"/>
<stop offset="0.4503" stop-color="#4DB6FF"/>
<stop offset="0.6638" stop-color="#46E4FF"/>
<stop offset="0.7742" stop-color="#42FFFF"/>
</linearGradient>
<linearGradient id="paint11_linear_7907_2" x1="27195.7" y1="5161.86" x2="28947.1" y2="7702.14" gradientUnits="userSpaceOnUse">
<stop stop-color="#BCBEFF"/>
<stop offset="0.23" stop-color="#AAADF8"/>
<stop offset="0.68" stop-color="#7C83E5"/>
<stop offset="1" stop-color="#5761D7"/>
</linearGradient>
<linearGradient id="paint12_linear_7907_2" x1="26659.4" y1="7900.77" x2="31793.5" y2="7900.77" gradientUnits="userSpaceOnUse">
<stop stop-color="#E9E9FD"/>
<stop offset="0.36" stop-color="#D3D2F9"/>
<stop offset="0.71" stop-color="#C5C4F7"/>
<stop offset="1" stop-color="#C0BFF6"/>
</linearGradient>
<linearGradient id="paint13_linear_7907_2" x1="27195.7" y1="3948.11" x2="28952.1" y2="6490.26" gradientUnits="userSpaceOnUse">
<stop stop-color="#BCBEFF"/>
<stop offset="0.23" stop-color="#AAADF8"/>
<stop offset="0.68" stop-color="#7C83E5"/>
<stop offset="1" stop-color="#5761D7"/>
</linearGradient>
<linearGradient id="paint14_linear_7907_2" x1="1102.7" y1="116.854" x2="1173.41" y2="157.638" gradientUnits="userSpaceOnUse">
<stop offset="0.24" stop-color="#5761D7"/>
<stop offset="0.39" stop-color="#7A82E5"/>
<stop offset="0.55" stop-color="#979CF0"/>
<stop offset="0.7" stop-color="#ACAFF8"/>
<stop offset="0.85" stop-color="#B8BAFD"/>
<stop offset="1" stop-color="#BCBEFF"/>
</linearGradient>
<linearGradient id="paint15_linear_7907_2" x1="26684.3" y1="6150.71" x2="31823.3" y2="6150.71" gradientUnits="userSpaceOnUse">
<stop stop-color="#E9E9FD"/>
<stop offset="0.36" stop-color="#D3D2F9"/>
<stop offset="0.71" stop-color="#C5C4F7"/>
<stop offset="1" stop-color="#C0BFF6"/>
</linearGradient>
<linearGradient id="paint16_linear_7907_2" x1="25966.1" y1="5963.93" x2="30792.3" y2="5963.93" gradientUnits="userSpaceOnUse">
<stop stop-color="#E9E9FD"/>
<stop offset="0.36" stop-color="#D3D2F9"/>
<stop offset="0.71" stop-color="#C5C4F7"/>
<stop offset="1" stop-color="#C0BFF6"/>
</linearGradient>
<linearGradient id="paint17_linear_7907_2" x1="996.839" y1="311.499" x2="1081.89" y2="164.194" gradientUnits="userSpaceOnUse">
<stop stop-color="#5778FF"/>
<stop offset="0.1042" stop-color="#567FFF"/>
<stop offset="0.2607" stop-color="#5394FF"/>
<stop offset="0.4503" stop-color="#4DB6FF"/>
<stop offset="0.6638" stop-color="#46E4FF"/>
<stop offset="0.7742" stop-color="#42FFFF"/>
</linearGradient>
<linearGradient id="paint18_linear_7907_2" x1="100498" y1="-16197.8" x2="119460" y2="14589.1" gradientUnits="userSpaceOnUse">
<stop stop-color="#35068C"/>
<stop offset="0.02" stop-color="#40DDDA"/>
<stop offset="0.09" stop-color="#3AAEC0"/>
<stop offset="0.17" stop-color="#3484A9"/>
<stop offset="0.26" stop-color="#2F6195"/>
<stop offset="0.35" stop-color="#2B4486"/>
<stop offset="0.44" stop-color="#282E79"/>
<stop offset="0.54" stop-color="#261E71"/>
<stop offset="0.66" stop-color="#24156C"/>
<stop offset="0.82" stop-color="#24126A"/>
</linearGradient>
<linearGradient id="paint19_linear_7907_2" x1="694.179" y1="362.675" x2="1005.21" y2="362.675" gradientUnits="userSpaceOnUse">
<stop stop-color="#3671E9"/>
<stop offset="0.15" stop-color="#91A2FA"/>
<stop offset="0.33" stop-color="#8B97F1"/>
<stop offset="0.52" stop-color="#7366C8"/>
<stop offset="0.72" stop-color="#654CB3"/>
<stop offset="0.93" stop-color="#4127A7"/>
<stop offset="1" stop-color="#260672"/>
</linearGradient>
<linearGradient id="paint20_linear_7907_2" x1="22746.8" y1="45113.4" x2="85402.2" y2="45113.4" gradientUnits="userSpaceOnUse">
<stop stop-color="#42E8E0"/>
<stop offset="0.15" stop-color="#43E3E0"/>
<stop offset="0.33" stop-color="#45D5DF"/>
<stop offset="0.52" stop-color="#49BDDD"/>
<stop offset="0.72" stop-color="#4E9CDB"/>
<stop offset="0.93" stop-color="#5472D8"/>
<stop offset="1" stop-color="#5761D7"/>
</linearGradient>
<linearGradient id="paint21_linear_7907_2" x1="103233" y1="-22241.8" x2="122195" y2="8545.16" gradientUnits="userSpaceOnUse">
<stop stop-color="#654CB2"/>
<stop offset="0.02" stop-color="#40DDDA"/>
<stop offset="0.09" stop-color="#3AAEC0"/>
<stop offset="0.17" stop-color="#3484A9"/>
<stop offset="0.26" stop-color="#2F6195"/>
<stop offset="0.35" stop-color="#2B4486"/>
<stop offset="0.44" stop-color="#282E79"/>
<stop offset="0.54" stop-color="#261E71"/>
<stop offset="0.66" stop-color="#24156C"/>
<stop offset="0.82" stop-color="#24126A"/>
</linearGradient>
<linearGradient id="paint22_linear_7907_2" x1="850.442" y1="212.227" x2="928.293" y2="600.925" gradientUnits="userSpaceOnUse">
<stop stop-color="#42E8E0"/>
<stop offset="0.02" stop-color="#40DDDA"/>
<stop offset="0.09" stop-color="#3AAEC0"/>
<stop offset="0.17" stop-color="#3484A9"/>
<stop offset="0.26" stop-color="#2F6195"/>
<stop offset="0.35" stop-color="#2B4486"/>
<stop offset="0.44" stop-color="#282E79"/>
<stop offset="0.54" stop-color="#261E71"/>
<stop offset="0.66" stop-color="#24156C"/>
<stop offset="0.82" stop-color="#24126A"/>
</linearGradient>
<linearGradient id="paint23_linear_7907_2" x1="735.873" y1="296.03" x2="1014.07" y2="296.03" gradientUnits="userSpaceOnUse">
<stop stop-color="#2B237C"/>
<stop offset="1" stop-color="#180D5B"/>
</linearGradient>
<linearGradient id="paint24_linear_7907_2" x1="20586.9" y1="28406.6" x2="43442.5" y2="28406.6" gradientUnits="userSpaceOnUse">
<stop stop-color="#2B237C"/>
<stop offset="1" stop-color="#180D5B"/>
</linearGradient>
<linearGradient id="paint25_linear_7907_2" x1="1655.96" y1="2185.27" x2="1660.07" y2="2244.98" gradientUnits="userSpaceOnUse">
<stop stop-color="#2B237D"/>
<stop offset="0.02" stop-color="#40DDDA"/>
<stop offset="0.09" stop-color="#3AAEC0"/>
<stop offset="0.17" stop-color="#3484A9"/>
<stop offset="0.26" stop-color="#2F6195"/>
<stop offset="0.35" stop-color="#2B4486"/>
<stop offset="0.44" stop-color="#282E79"/>
<stop offset="0.54" stop-color="#261E71"/>
<stop offset="0.66" stop-color="#24156C"/>
<stop offset="0.82" stop-color="#24126A"/>
</linearGradient>
<linearGradient id="paint26_linear_7907_2" x1="1784.55" y1="2106.98" x2="1788.53" y2="2166.7" gradientUnits="userSpaceOnUse">
<stop stop-color="#2C247E"/>
<stop offset="0.02" stop-color="#40DDDA"/>
<stop offset="0.09" stop-color="#3AAEC0"/>
<stop offset="0.17" stop-color="#3484A9"/>
<stop offset="0.26" stop-color="#2F6195"/>
<stop offset="0.35" stop-color="#2B4486"/>
<stop offset="0.44" stop-color="#282E79"/>
<stop offset="0.54" stop-color="#261E71"/>
<stop offset="0.66" stop-color="#24156C"/>
<stop offset="0.82" stop-color="#24126A"/>
</linearGradient>
<linearGradient id="paint27_linear_7907_2" x1="2085.15" y1="2571.07" x2="2092.74" y2="2655.26" gradientUnits="userSpaceOnUse">
<stop stop-color="#2B237C"/>
<stop offset="1" stop-color="#180D5B"/>
</linearGradient>
<linearGradient id="paint28_linear_7907_2" x1="3088.47" y1="3407.33" x2="3172.26" y2="3421.55" gradientUnits="userSpaceOnUse">
<stop stop-color="#2B237C"/>
<stop offset="1" stop-color="#180D5B"/>
</linearGradient>
<linearGradient id="paint29_linear_7907_2" x1="21567.3" y1="26289.2" x2="91331.6" y2="51600.8" gradientUnits="userSpaceOnUse">
<stop stop-color="#654DB3"/>
<stop offset="0.0899" stop-color="#40DDDA"/>
<stop offset="0.09" stop-color="#E9E9FE"/>
<stop offset="0.17" stop-color="#654DB3"/>
<stop offset="0.26" stop-color="#2F6195"/>
<stop offset="0.35" stop-color="#2B4486"/>
<stop offset="0.44" stop-color="#282E79"/>
<stop offset="0.54" stop-color="#261E71"/>
<stop offset="0.66" stop-color="#24156C"/>
<stop offset="0.82" stop-color="#24126A"/>
</linearGradient>
<linearGradient id="paint30_linear_7907_2" x1="3762.8" y1="5207.83" x2="3901.46" y2="5228.76" gradientUnits="userSpaceOnUse">
<stop stop-color="#2B237C"/>
<stop offset="1" stop-color="#180D5B"/>
</linearGradient>
<linearGradient id="paint31_linear_7907_2" x1="3563.49" y1="5362.92" x2="3702.15" y2="5383.85" gradientUnits="userSpaceOnUse">
<stop stop-color="#2B237C"/>
<stop offset="1" stop-color="#180D5B"/>
</linearGradient>
<linearGradient id="paint32_linear_7907_2" x1="3105.2" y1="5510.32" x2="3276.03" y2="5536.14" gradientUnits="userSpaceOnUse">
<stop stop-color="#2B237C"/>
<stop offset="1" stop-color="#180D5B"/>
</linearGradient>
<linearGradient id="paint33_linear_7907_2" x1="2175.94" y1="4620.31" x2="2200.03" y2="4912.35" gradientUnits="userSpaceOnUse">
<stop stop-color="#2C247D"/>
<stop offset="0.02" stop-color="#40DDDA"/>
<stop offset="0.09" stop-color="#3AAEC0"/>
<stop offset="0.17" stop-color="#3484A9"/>
<stop offset="0.26" stop-color="#2F6195"/>
<stop offset="0.35" stop-color="#2B4486"/>
<stop offset="0.44" stop-color="#282E79"/>
<stop offset="0.54" stop-color="#261E71"/>
<stop offset="0.66" stop-color="#24156C"/>
<stop offset="0.82" stop-color="#24126A"/>
</linearGradient>
<linearGradient id="paint34_linear_7907_2" x1="2527.09" y1="4878.14" x2="2550.01" y2="5179.3" gradientUnits="userSpaceOnUse">
<stop stop-color="#2B237C"/>
<stop offset="1" stop-color="#180D5B"/>
</linearGradient>
<linearGradient id="paint35_linear_7907_2" x1="14857.3" y1="14027.1" x2="14981.3" y2="17334.1" gradientUnits="userSpaceOnUse">
<stop stop-color="#91A2FA"/>
<stop offset="0.0199" stop-color="#91A2FA"/>
<stop offset="0.02" stop-color="#654DB3"/>
<stop offset="0.09" stop-color="#654DB3"/>
<stop offset="0.17" stop-color="#654DB3"/>
<stop offset="0.26" stop-color="#654CB3"/>
<stop offset="0.35" stop-color="#35068C"/>
<stop offset="0.44" stop-color="#35068C"/>
<stop offset="0.54" stop-color="#35068C"/>
<stop offset="0.66" stop-color="#35068C"/>
<stop offset="0.82" stop-color="#35068C"/>
</linearGradient>
<linearGradient id="paint36_linear_7907_2" x1="132.423" y1="879.168" x2="119.891" y2="1877.12" gradientUnits="userSpaceOnUse">
<stop stop-color="white" stop-opacity="0"/>
<stop offset="0.387874" stop-color="white" stop-opacity="0.04"/>
<stop offset="1" stop-color="white" stop-opacity="0"/>
</linearGradient>
</defs>
</svg>
