<svg width="48" height="48" viewBox="0 0 48 48" fill="none" xmlns="http://www.w3.org/2000/svg">
<g clip-path="url(#clip0_1_493)">
<path d="M34.8931 16.6551C33.7776 16.213 32.5985 15.9912 31.4112 16C27.5718 16 24.8602 18.1037 24.841 21.1236C24.817 23.3421 26.7679 24.5924 28.2437 25.3336C29.7579 26.0958 30.2642 26.576 30.2594 27.2573C30.2498 28.2935 29.05 28.7633 27.9341 28.7633C26.4008 28.7633 25.5633 28.531 24.2747 27.9489L23.7972 27.7062L23.2525 31.1828C24.1859 31.6056 25.8681 31.9684 27.6054 31.9998C31.6872 31.9998 34.3556 29.9091 34.3868 26.6961C34.4204 24.9238 33.3645 23.5849 31.1425 22.4782C29.7915 21.7604 28.954 21.2802 28.954 20.552C28.954 19.9073 29.6715 19.2182 31.1713 19.2182C32.1694 19.192 33.1614 19.3957 34.082 19.8159L34.442 19.9908L34.9867 16.6316L34.8931 16.6551ZM44.8564 16.2819H41.8569C40.9234 16.2819 40.2203 16.5612 39.8124 17.5687L34.0436 31.7831H38.1254L38.9413 29.4523L43.923 29.4575C44.0405 30.003 44.4005 31.7831 44.4005 31.7831H47.9999L44.8564 16.2819ZM19.3194 16.1514H23.2093L20.776 31.6604H16.891L19.3194 16.1462V16.1514ZM9.44492 24.6994L9.84806 26.8527L13.6491 16.2819H17.7693L11.6478 31.7622H7.53721L4.17771 18.6545C4.1233 18.4383 3.99552 18.2527 3.82017 18.135C2.60931 17.4547 1.32633 16.9384 -6.10352e-05 16.5977L0.0527309 16.2715H6.31339C7.16286 16.308 7.84676 16.5977 8.07473 17.5843L9.44252 24.7072V24.6994H9.44492ZM40.0571 26.2811L41.6073 21.9431C41.5881 21.9901 41.9265 21.0479 42.1232 20.4658L42.3896 21.8048L43.2894 26.2785H40.0547V26.2811H40.0571Z" fill="#E0E0E0"/>
</g>
<defs>
<clipPath id="clip0_1_493">
<rect width="48" height="48" fill="white"/>
</clipPath>
</defs>
</svg>
